<?xml version="1.0" encoding="utf-8"?>
<!-- Generator: Adobe Illustrator 24.1.1, SVG Export Plug-In . SVG Version: 6.00 Build 0)  -->
<svg version="1.1" id="Layer_1" xmlns="http://www.w3.org/2000/svg" xmlns:xlink="http://www.w3.org/1999/xlink" x="0px" y="0px"
	 viewBox="0 0 150 50" style="enable-background:new 0 0 150 50;" xml:space="preserve">
<style type="text/css">
	.st0{fill:#E0E0E0;}
	.st1{display:none;fill:#FFFFFF;}
</style>
<g>
	<path class="st0" d="M37.6,33.4l-1.5-7.6c-0.1-0.4-0.1-0.9-0.8-1.4L33.7,6.6c0-0.4-0.3-0.6-0.5-0.6C20.7,7.1,15.8,4.6,13.3,3.2
		C13,3,12.6,3.3,12.7,3.6c0.1,0.8,0.6,2,3.4,2.9C20.9,8,29,7.3,32.6,6.9c0.2,0,0.2,0.2,0.2,0.4L34.4,24L33,23.2L31,9.3
		c0-0.4-0.4-0.7-0.8-0.6c-9.9,3.2-16.9,4.2-18.9,3.4c-0.5-0.2-0.8,0.1-0.6,0.6c0.1,0.6,0.8,1.5,3.4,1.4c3.1-0.2,14.4-3.8,15.9-4.2
		c0.1,0,0.2,0.1,0.3,0.3l2,12.7l-6.8-3.5c-0.6-0.3-1.2-0.4-1.9-0.2L14,21.8c-0.6,0.1-1.1,0.5-1.4,0.9L6.8,30
		c-0.9,1.2-0.6,2.8,0.5,3.7l12.6,9.2c0.4,0.3,1,0.5,1.5,0.5h8c0.8,0,1.5-0.3,2-0.9l5.6-6.8C37.5,35,37.8,34.2,37.6,33.4z"/>
	<path d="M26.9,24.3c-4.4-0.1-6.8,3-6.8,6.6s2.7,6.1,6.3,6.1s6.6-1.5,6.8-5.9C33.3,27.5,31.8,24.4,26.9,24.3z M28.3,33.2
		c-1.2,0-2.1-0.9-2.1-2.1c0-1.2,0.9-2.1,2.1-2.1s2.1,0.9,2.1,2.1C30.4,32.3,29.5,33.2,28.3,33.2z"/>
	<path class="st1" d="M32.1,33.5c-0.8,3.7-4.5,6-8.2,5.2s-6-4.5-5.2-8.2s4.5-6,8.2-5.2c1.6,0.4,3,1.3,3.9,2.5
		c-0.7-0.7-1.6-1.2-2.7-1.3c-2.4-0.2-4.5,1.5-4.7,3.9c-0.2,2.4,1.5,4.5,3.9,4.7c2.4,0.2,4.5-1.5,4.7-3.9c0-0.5,0-0.9-0.1-1.4
		C32.3,30.9,32.4,32.2,32.1,33.5z"/>
	<circle class="st1" cx="28.1" cy="30.9" r="1.6"/>
</g>
<g>
	<path class="st0" d="M59.3,24.1c-2,0-3.8,0.7-5.2,2.2c-1.4,1.4-2.2,3.2-2.2,5.2s0.7,3.8,2.2,5.2s3.2,2.2,5.2,2.2
		c1.7,0,3.2-0.5,4.5-1.5v1.5h2.9V24.1H59.3z M62.5,34.7c-0.9,0.9-1.9,1.3-3.2,1.3s-2.3-0.4-3.2-1.3s-1.3-1.9-1.3-3.2
		s0.4-2.3,1.3-3.2S58,27,59.3,27s2.3,0.4,3.2,1.3s1.3,1.9,1.3,3.2C63.8,32.7,63.4,33.8,62.5,34.7z"/>
	<path class="st0" d="M103.3,24.1c-2,0-3.8,0.7-5.2,2.2s-2.2,3.2-2.2,5.2s0.7,3.8,2.2,5.2c1.4,1.4,3.2,2.2,5.2,2.2
		c1.7,0,3.2-0.5,4.5-1.5v1.5h2.9V24.1H103.3z M106.5,34.7c-0.9,0.9-1.9,1.3-3.2,1.3s-2.3-0.4-3.2-1.3s-1.3-1.9-1.3-3.2
		s0.4-2.3,1.3-3.2s1.9-1.3,3.2-1.3s2.3,0.4,3.2,1.3s1.3,1.9,1.3,3.2C107.8,32.7,107.4,33.8,106.5,34.7z"/>
	<path class="st0" d="M78.9,25.7c-1.1-1.1-2.6-1.6-4.1-1.6H69v14.8h2.9v-9l0,0v-0.3c0.1-0.7,0.3-1.3,0.9-1.9
		c0.6-0.5,1.2-0.8,1.9-0.8c0.8,0,1.4,0.3,1.9,0.8s0.8,1.1,0.9,1.8v9.3h2.9v-9.3C80.4,28.1,80,26.8,78.9,25.7z"/>
	<path class="st0" d="M87.8,35.2c-0.5-0.5-0.8-1.1-0.9-1.9V27H90v-2.9h-3.1v-2.9H84v2.9h-2.2V27H84v6.4l0,0c0.1,1.5,0.6,2.8,1.7,3.9
		c1.1,1,2.4,1.6,4,1.6H90V36h-0.3C88.9,36,88.3,35.7,87.8,35.2z"/>
	<path class="st0" d="M126.3,26.3c-1.4-1.4-3.2-2.2-5.2-2.2h-7.4v20h2.9v-6.7c1.3,1,2.8,1.5,4.5,1.5c2,0,3.8-0.7,5.2-2.2
		c1.4-1.4,2.2-3.2,2.2-5.2C128.5,29.5,127.7,27.7,126.3,26.3z M124.2,34.7c-0.9,0.9-1.9,1.3-3.2,1.3s-2.3-0.4-3.2-1.3
		s-1.3-1.9-1.3-3.2s0.4-2.3,1.3-3.2s1.9-1.3,3.2-1.3s2.3,0.4,3.2,1.3s1.3,1.9,1.3,3.2C125.6,32.7,125.1,33.8,124.2,34.7z"/>
	<path class="st0" d="M143.5,26.3c-1.4-1.4-3.2-2.2-5.2-2.2h-7.4v20h2.9v-6.7c1.3,1,2.8,1.5,4.5,1.5c2,0,3.8-0.7,5.2-2.2
		c1.4-1.4,2.2-3.2,2.2-5.2C145.7,29.5,144.9,27.7,143.5,26.3z M141.4,34.7c-0.9,0.9-1.9,1.3-3.2,1.3s-2.3-0.4-3.2-1.3
		s-1.3-1.9-1.3-3.2s0.4-2.3,1.3-3.2s1.9-1.3,3.2-1.3s2.3,0.4,3.2,1.3s1.3,1.9,1.3,3.2C142.8,32.7,142.3,33.8,141.4,34.7z"/>
</g>
</svg>
