<?xml version="1.0" encoding="utf-8"?>
<!-- Generator: Adobe Illustrator 24.0.1, SVG Export Plug-In . SVG Version: 6.00 Build 0)  -->
<svg version="1.1" id="Layer_1" xmlns="http://www.w3.org/2000/svg" xmlns:xlink="http://www.w3.org/1999/xlink" x="0px" y="0px"
	 viewBox="0 0 150 50" style="enable-background:new 0 0 150 50;" xml:space="preserve">
<style type="text/css">
	.st0{fill:url(#SVGID_1_);}
	.st1{fill:#FFFFFF;}
	.st2{display:none;fill:#FFFFFF;}
	.st3{fill:#231F20;}
</style>
<g>
	
		<radialGradient id="SVGID_1_" cx="27.3256" cy="17.8401" r="18.0179" gradientTransform="matrix(1 0 0 -1 0 49)" gradientUnits="userSpaceOnUse">
		<stop  offset="0" style="stop-color:#595A5C"/>
		<stop  offset="0.3241" style="stop-color:#454345"/>
		<stop  offset="0.7742" style="stop-color:#2C292A"/>
		<stop  offset="1" style="stop-color:#231F20"/>
	</radialGradient>
	<path class="st0" d="M37.6,33.42l-1.54-7.57c-0.09-0.43-0.11-0.91-0.83-1.37L33.69,6.61c-0.04-0.42-0.33-0.59-0.55-0.57
		c-12.42,1.09-17.33-1.49-19.8-2.81c-0.3-0.16-0.67,0.06-0.64,0.4c0.06,0.8,0.59,2.01,3.39,2.87c4.82,1.48,12.86,0.76,16.47,0.45
		c0.21-0.02,0.2,0.17,0.23,0.38l1.6,16.65l-1.37-0.79L31.03,9.3c-0.02-0.41-0.43-0.7-0.82-0.57c-9.86,3.15-16.88,4.19-18.86,3.36
		c-0.47-0.2-0.77,0.1-0.64,0.62c0.15,0.61,0.84,1.52,3.39,1.35c3.15-0.2,14.45-3.76,15.88-4.23c0.12-0.04,0.24,0.12,0.25,0.25
		l1.96,12.7l-6.83-3.52c-0.57-0.3-1.23-0.37-1.86-0.2l-9.64,2.56c-0.56,0.15-1.05,0.48-1.4,0.94l-5.65,7.42
		c-0.88,1.16-0.64,2.81,0.53,3.67l12.58,9.18c0.44,0.32,0.98,0.5,1.53,0.5l7.98,0.01c0.78,0,1.51-0.34,2.01-0.94l5.63-6.8
		C37.55,34.99,37.75,34.19,37.6,33.42z"/>
	<path class="st1" d="M26.9,24.33c-4.43-0.1-6.79,2.96-6.79,6.61s2.7,6.11,6.31,6.11s6.62-1.45,6.77-5.89
		C33.32,27.51,31.75,24.44,26.9,24.33z M28.29,33.22c-1.16,0-2.1-0.94-2.1-2.1c0-1.16,0.94-2.1,2.1-2.1s2.1,0.94,2.1,2.1
		C30.39,32.28,29.45,33.22,28.29,33.22z"/>
	<path class="st2" d="M32.12,33.48c-0.82,3.71-4.5,6.04-8.2,5.22s-6.04-4.5-5.22-8.2c0.82-3.7,4.5-6.04,8.2-5.22
		c1.61,0.36,2.95,1.25,3.9,2.45c-0.69-0.72-1.64-1.2-2.71-1.3c-2.38-0.22-4.48,1.53-4.7,3.9c-0.22,2.38,1.53,4.48,3.9,4.7
		c2.38,0.22,4.48-1.53,4.7-3.9c0.04-0.47,0.01-0.93-0.09-1.36C32.31,30.92,32.4,32.2,32.12,33.48z"/>
	<circle class="st2" cx="28.12" cy="30.92" r="1.58"/>
</g>
<g>
	<path class="st3" d="M59.31,24.11c-2.03,0-3.78,0.73-5.22,2.17c-1.44,1.44-2.17,3.19-2.17,5.22c0,2.04,0.73,3.8,2.17,5.23
		s3.19,2.16,5.22,2.16c1.68,0,3.19-0.51,4.5-1.51v1.51h2.9V24.11H59.31z M62.49,34.67c-0.89,0.89-1.93,1.32-3.18,1.32
		s-2.29-0.43-3.17-1.32s-1.31-1.93-1.31-3.18s0.43-2.29,1.31-3.17s1.92-1.31,3.17-1.31s2.29,0.43,3.18,1.31s1.32,1.92,1.32,3.17
		C63.81,32.74,63.38,33.78,62.49,34.67z"/>
	<path class="st3" d="M103.31,24.11c-2.03,0-3.78,0.73-5.22,2.17s-2.17,3.19-2.17,5.22c0,2.04,0.73,3.8,2.17,5.23
		c1.44,1.43,3.19,2.16,5.22,2.16c1.68,0,3.19-0.51,4.5-1.51v1.51h2.9V24.11H103.31z M106.49,34.67c-0.89,0.89-1.93,1.32-3.18,1.32
		s-2.29-0.43-3.17-1.32s-1.31-1.93-1.31-3.18s0.43-2.29,1.31-3.17s1.92-1.31,3.17-1.31s2.29,0.43,3.18,1.31s1.32,1.92,1.32,3.17
		C107.81,32.74,107.37,33.78,106.49,34.67z"/>
	<path class="st3" d="M78.86,25.73c-1.1-1.06-2.61-1.62-4.13-1.62h-5.76v14.78h2.9V29.9h0.02l0.02-0.28
		c0.05-0.73,0.34-1.34,0.88-1.85c0.55-0.51,1.18-0.76,1.94-0.76c0.75,0,1.38,0.25,1.92,0.76s0.83,1.11,0.88,1.84v9.25l2.9,0.02
		l0.01-9.29C80.39,28.08,79.96,26.79,78.86,25.73z"/>
	<path class="st3" d="M87.75,35.23c-0.54-0.51-0.83-1.12-0.88-1.86v-6.36h3.09v-2.9h-3.09v-2.9h-2.9v2.9h-2.22v2.9h2.22v6.37v0.01
		c0.06,1.53,0.64,2.83,1.74,3.89c1.1,1.05,2.43,1.59,3.97,1.6h0.3v-2.89h-0.3C88.92,35.99,88.29,35.74,87.75,35.23z"/>
	<path class="st3" d="M126.29,26.27c-1.44-1.44-3.2-2.17-5.23-2.17h-7.39v19.96h2.9v-6.69c1.28,1,2.79,1.51,4.48,1.51
		c2.03,0,3.78-0.73,5.23-2.16c1.44-1.43,2.17-3.19,2.17-5.23C128.46,29.47,127.73,27.71,126.29,26.27z M124.24,34.67
		c-0.89,0.89-1.93,1.32-3.18,1.32s-2.29-0.43-3.17-1.32s-1.31-1.93-1.31-3.18s0.43-2.29,1.31-3.17s1.92-1.31,3.17-1.31
		s2.29,0.43,3.18,1.31s1.32,1.92,1.32,3.17C125.56,32.74,125.13,33.78,124.24,34.67z"/>
	<path class="st3" d="M143.5,26.27c-1.44-1.44-3.2-2.17-5.23-2.17h-7.39v19.96h2.9v-6.69c1.28,1,2.79,1.51,4.48,1.51
		c2.03,0,3.78-0.73,5.23-2.16c1.44-1.43,2.17-3.19,2.17-5.23C145.67,29.47,144.94,27.71,143.5,26.27z M141.45,34.67
		c-0.89,0.89-1.93,1.32-3.18,1.32s-2.29-0.43-3.17-1.32s-1.31-1.93-1.31-3.18s0.43-2.29,1.31-3.17s1.92-1.31,3.17-1.31
		s2.29,0.43,3.18,1.31s1.32,1.92,1.32,3.17C142.77,32.74,142.33,33.78,141.45,34.67z"/>
</g>
</svg>
