<?xml version="1.0" encoding="utf-8"?>
<!-- Generator: Adobe Illustrator 24.0.1, SVG Export Plug-In . SVG Version: 6.00 Build 0)  -->
<svg version="1.1" id="Layer_1" xmlns="http://www.w3.org/2000/svg" xmlns:xlink="http://www.w3.org/1999/xlink" x="0px" y="0px"
	 viewBox="0 0 28 25" style="enable-background:new 0 0 28 25;" xml:space="preserve">
<style type="text/css">
	.st0{fill:url(#SVGID_1_);}
	.st1{fill:#FFFFFF;}
	.st2{display:none;fill:#FFFFFF;}
	.st3{fill:url(#SVGID_2_);}
</style>
<g>
	<radialGradient id="SVGID_1_" cx="17.0247" cy="16.9574" r="10.1598" gradientUnits="userSpaceOnUse">
		<stop  offset="0" style="stop-color:#595A5C"/>
		<stop  offset="0.3241" style="stop-color:#454345"/>
		<stop  offset="0.7742" style="stop-color:#2C292A"/>
		<stop  offset="1" style="stop-color:#231F20"/>
	</radialGradient>
	<path class="st0" d="M22.82,18.23l-0.87-4.27c-0.05-0.24-0.06-0.52-0.47-0.77L20.61,3.11c-0.02-0.24-0.19-0.33-0.31-0.32
		c-7,0.62-9.77-0.84-11.17-1.58C8.97,1.12,8.76,1.24,8.78,1.43c0.03,0.45,0.33,1.13,1.91,1.62c2.72,0.84,7.25,0.43,9.28,0.26
		c0.12-0.01,0.11,0.09,0.13,0.22l0.9,9.39l-0.77-0.45l-1.12-7.84c-0.01-0.23-0.24-0.4-0.46-0.32C13.09,6.08,9.13,6.67,8.02,6.2
		C7.75,6.09,7.58,6.25,7.66,6.55C7.74,6.89,8.13,7.4,9.57,7.31c1.78-0.12,8.15-2.12,8.95-2.38c0.07-0.02,0.13,0.07,0.14,0.14
		l1.1,7.16l-3.85-1.98c-0.32-0.17-0.7-0.21-1.05-0.11l-5.44,1.45c-0.31,0.08-0.59,0.27-0.79,0.53l-3.19,4.19
		c-0.5,0.65-0.36,1.59,0.3,2.07l7.09,5.18c0.25,0.18,0.55,0.28,0.86,0.28l4.5,0.01c0.44,0,0.85-0.19,1.13-0.53l3.17-3.83
		C22.79,19.12,22.9,18.67,22.82,18.23z"/>
	<path class="st1" d="M16.79,13.11c-2.5-0.06-3.83,1.67-3.83,3.73s1.52,3.45,3.56,3.45s3.73-0.82,3.82-3.32
		C20.41,14.9,19.52,13.17,16.79,13.11z M17.57,18.12c-0.65,0-1.18-0.53-1.18-1.18s0.53-1.18,1.18-1.18c0.65,0,1.18,0.53,1.18,1.18
		S18.22,18.12,17.57,18.12z"/>
	<path class="st2" d="M19.73,18.27c-0.46,2.09-2.53,3.41-4.62,2.94c-2.09-0.46-3.41-2.53-2.94-4.62c0.46-2.09,2.53-3.41,4.62-2.94
		c0.91,0.2,1.67,0.71,2.2,1.38c-0.39-0.4-0.92-0.68-1.53-0.73c-1.34-0.12-2.53,0.86-2.65,2.2c-0.12,1.34,0.86,2.53,2.2,2.65
		c1.34,0.12,2.53-0.86,2.65-2.2c0.02-0.26,0.01-0.52-0.05-0.77C19.84,16.82,19.89,17.54,19.73,18.27z"/>
	<circle class="st2" cx="17.47" cy="16.82" r="0.89"/>
</g>
<radialGradient id="SVGID_2_" cx="16.6478" cy="16.3272" r="8.358" gradientUnits="userSpaceOnUse">
	<stop  offset="0" style="stop-color:#595A5C"/>
	<stop  offset="0.3241" style="stop-color:#454345"/>
	<stop  offset="0.7742" style="stop-color:#2C292A"/>
	<stop  offset="1" style="stop-color:#231F20"/>
</radialGradient>
<path class="st3" d="M20.34,16.59c-0.09,2.51-1.78,3.33-3.82,3.33c-2.04,0-3.56-1.39-3.56-3.45s1.33-3.79,3.83-3.73
	C19.52,12.81,20.41,14.54,20.34,16.59z"/>
</svg>
